#N canvas 0 25 1440 791 12;
#N canvas 0 25 1076 604 comp 0;
#X obj 220 128 hsl 60 20 -100 0 0 0 empty empty Threshold/dB -2 -8
0 9 -204800 -1 -1 5015 1;
#X obj 291 128 hsl 60 20 1 1000 0 0 empty empty Attack/ms -2 -8 0 9
-261234 -1 -1 53 1;
#X obj 363 128 hsl 60 20 1 1000 0 0 empty empty Release/ms -2 -8 0
9 -262130 -1 -1 1175 1;
#X obj 433 128 hsl 60 20 0 1000 0 0 empty empty Comp_ratio -2 -8 0
9 -204786 -1 -1 29 1;
#X floatatom 217 154 5 0 0 0 - - -;
#X floatatom 288 153 5 0 0 0 - - -;
#X floatatom 360 153 5 0 0 0 - - -;
#X floatatom 430 153 5 0 0 0 - - -;
#X obj 164 129 bng 40 250 50 0 empty empty empty 17 7 0 10 -232576
-1 -1;
#X obj 110 129 tgl 40 0 empty empty empty 17 7 0 10 -191407 -1 -1 1
1;
#X obj 218 14 loadbang;
#X msg 288 74 10;
#X msg 361 75 200;
#X msg 111 74 1;
#X obj 217 183 v thr_\$0;
#X obj 288 183 / 1000;
#X obj 288 206 s TA_\$0;
#X obj 360 184 / 1000;
#X obj 360 207 s TR_\$0;
#X obj 101 226 inlet~;
#N canvas 388 247 1050 480 processing 0;
#X obj 61 36 inlet~;
#X obj 141 63 switch~;
#X obj 141 36 inlet;
#X obj 256 312 r alpha_a;
#X obj 447 311 r alpha_r;
#X obj 337 189 s~ m\$0;
#X obj 65 308 fexpr~ $x2-$x1 \;;
#X obj 65 406 fexpr~ pow(10 \, (CG_\$0 +$x2)/20) \;;
#X obj 285 378 r~ m\$0;
#X obj 65 441 outlet~;
#X obj 65 339 fexpr~ if($x1<= CG_\$0 \, CG_\$0 = $f2* CG_\$0 + (1-$f2)*$x1
\, CG_\$0 = $f3* CG_\$0 + (1-$f3)*$x1);
#X obj 61 87 fexpr~ 20*log10(abs($x1)+0.00001);
#X obj 140 118 fexpr~ if(halfW_\$0<thr_\$0 \, 0 \, 0) \; if((thr_\$0>=(-halfW_\$0)&&(thr_\$0<=halfW_\$0))
\, -((1 / R_\$0 -1)*pow(thr_\$0 - halfW_\$0 \, 2)/(4*halfW_\$0)) \,
0) \; if(-halfW_\$0 > thr_\$0 \, -thr_\$0 + thr_\$0/R_\$0 \, 0) \;
, f 107;
#X obj 138 216 fexpr~ if($x1 < (thr_\$0 - halfW_\$0) \, $x1 \, 0) \;
if(($x1 >= (thr_\$0 - halfW_\$0))&&($x1<=(thr_\$0 + halfW_\$0)) \,
$x1+((1/ R_\$0 -1)*pow($x1- thr_\$0 + halfW_\$0 \, 2)/(4*halfW_\$0))
\, 0) \; if($x1>( thr_\$0 + halfW_\$0) \, thr_\$0 +($x1- thr_\$0)/R_\$0
\, 0), f 131;
#X connect 0 0 11 0;
#X connect 2 0 1 0;
#X connect 3 0 10 1;
#X connect 4 0 10 2;
#X connect 6 0 10 0;
#X connect 7 0 9 0;
#X connect 8 0 7 1;
#X connect 10 0 7 0;
#X connect 11 0 6 0;
#X connect 11 0 12 0;
#X connect 11 0 13 0;
#X connect 12 0 5 0;
#X connect 12 1 5 0;
#X connect 12 2 5 0;
#X connect 13 0 6 1;
#X connect 13 1 6 1;
#X connect 13 2 6 1;
#X restore 126 257 pd processing;
#X obj 101 352 outlet~;
#X obj 627 120 loadbang;
#X obj 627 146 bng 15 250 50 0 empty empty empty 17 7 0 10 -262144
-1 -1;
#X obj 667 170 bng 15 250 50 0 empty empty empty 17 7 0 10 -262144
-1 -1;
#X obj 627 191 v CG_\$0;
#X floatatom 626 213 5 0 0 0 - - -;
#X obj 626 242 loadbang;
#X obj 626 270 bng 15 250 50 0 empty empty empty 17 7 0 10 -262144
-1 -1;
#X obj 430 184 v R_\$0;
#X obj 506 128 hsl 60 20 0 1000 0 0 empty empty Knees/dB -2 -8 0 9
-203904 -1 -1 0 1;
#X floatatom 503 153 5 0 0 0 - - -;
#X obj 218 42 t b b b b b b b;
#X msg 503 76 0;
#X msg 430 76 5;
#X msg 627 78 \; pd dsp 1;
#X obj 503 207 v halfW_\$0;
#X obj 503 182 / 2;
#X obj 626 297 samplerate~;
#X obj 677 340 s sr;
#X obj 426 316 r TA_\$0;
#X obj 426 341 expr exp(-2.197225/($f2*$f1));
#X obj 502 365 r TR_\$0;
#X obj 502 395 expr exp(-2.197225/($f2*$f1));
#X floatatom 426 366 5 0 0 0 - - -;
#X floatatom 502 426 5 0 0 0 - - -;
#X msg 627 167 1;
#X obj 101 323 expr~ if($f3==0 \, $v1 \, $v2);
#X obj 128 289 fexpr~ $x1*$x2;
#X obj 426 396 s alpha_a;
#X obj 502 459 s alpha_r;
#X obj 527 320 bng 15 250 50 0 empty empty empty 17 7 0 10 -262144
-1 -1;
#X msg 218 74 -15;
#X obj 385 18 inlet;
#X obj 429 30 inlet;
#X obj 484 24 inlet;
#X obj 536 18 inlet;
#X obj 589 17 inlet;
#X connect 0 0 4 0;
#X connect 1 0 5 0;
#X connect 2 0 6 0;
#X connect 3 0 7 0;
#X connect 4 0 14 0;
#X connect 5 0 15 0;
#X connect 6 0 17 0;
#X connect 7 0 29 0;
#X connect 8 0 28 0;
#X connect 8 0 23 0;
#X connect 9 0 20 1;
#X connect 9 0 47 2;
#X connect 10 0 32 0;
#X connect 11 0 1 0;
#X connect 12 0 2 0;
#X connect 13 0 9 0;
#X connect 15 0 16 0;
#X connect 17 0 18 0;
#X connect 19 0 20 0;
#X connect 19 0 47 0;
#X connect 19 0 48 0;
#X connect 20 0 48 1;
#X connect 22 0 23 0;
#X connect 23 0 46 0;
#X connect 24 0 25 0;
#X connect 25 0 26 0;
#X connect 27 0 28 0;
#X connect 28 0 38 0;
#X connect 30 0 31 0;
#X connect 31 0 37 0;
#X connect 32 0 52 0;
#X connect 32 1 11 0;
#X connect 32 2 12 0;
#X connect 32 3 34 0;
#X connect 32 4 13 0;
#X connect 32 5 33 0;
#X connect 32 6 35 0;
#X connect 33 0 30 0;
#X connect 34 0 3 0;
#X connect 37 0 36 0;
#X connect 38 0 39 0;
#X connect 38 0 41 1;
#X connect 38 0 43 1;
#X connect 40 0 41 0;
#X connect 41 0 44 0;
#X connect 42 0 43 0;
#X connect 42 0 51 0;
#X connect 43 0 45 0;
#X connect 44 0 49 0;
#X connect 45 0 50 0;
#X connect 46 0 25 0;
#X connect 47 0 21 0;
#X connect 48 0 47 1;
#X connect 51 0 41 0;
#X connect 52 0 0 0;
#X connect 53 0 0 0;
#X connect 54 0 1 0;
#X connect 55 0 2 0;
#X connect 56 0 3 0;
#X connect 57 0 30 0;
#X coords 0 -1 1 1 500 80 1 100 100;
#X restore 61 45 pd comp;
#N canvas 491 281 450 418 chorus 0;
#N canvas 715 320 450 300 vibrato 0;
#X obj 47 158 fexpr~ $x1[$x2];
#X obj 47 193 outlet~;
#X obj 149 98 osc~ 5;
#X obj 149 127 expr~ -($v1*$f2+31);
#X floatatom 149 73 5 0 0 0 - - -;
#X floatatom 279 100 5 0 0 0 - - -;
#X obj 149 44 inlet;
#X obj 279 72 inlet;
#X obj 47 130 inlet~;
#X connect 0 0 1 0;
#X connect 2 0 3 0;
#X connect 3 0 0 1;
#X connect 4 0 2 0;
#X connect 5 0 3 1;
#X connect 6 0 4 0;
#X connect 7 0 5 0;
#X connect 8 0 0 0;
#X restore 129 190 pd vibrato;
#X f 11;
#X obj 68 217 expr~ $v1*(1-$f3) \; $v2*$f3;
#X obj 109 133 hsl 100 20 0 1 0 0 empty empty D/W -2 -8 0 10 -261234
-1 -1 0 1;
#X obj 70 262 +~;
#X obj 67 307 outlet~;
#X obj 29 105 inlet~;
#X msg 249 162 5;
#X msg 287 163 8;
#X obj 249 139 bng 15 250 50 0 empty empty empty 17 7 0 10 -262144
-1 -1;
#X obj 250 112 loadbang;
#X obj 129 55 inlet;
#X connect 0 0 1 1;
#X connect 1 0 3 0;
#X connect 1 1 3 1;
#X connect 2 0 1 2;
#X connect 3 0 4 0;
#X connect 5 0 1 0;
#X connect 5 0 0 0;
#X connect 6 0 0 1;
#X connect 7 0 0 2;
#X connect 8 0 6 0;
#X connect 8 0 7 0;
#X connect 9 0 8 0;
#X connect 10 0 2 0;
#X coords 0 -1 1 1 120 60 1 100 100;
#X restore 59 391 pd chorus;
#N canvas 978 286 450 300 delayR 0;
#X obj 36 166 expr~ $v1*(1-$f3) + $v2*($f3);
#X obj 17 37 inlet~;
#X obj 36 199 outlet~;
#X obj 313 12 inlet;
#X obj 141 219 *~ 0.5;
#X obj 214 94 hsl 50 15 0 1 0 0 empty empty feedback -2 -8 0 10 -262144
-1 -1 0 1;
#X obj 92 49 +~;
#X obj 215 59 hsl 50 15 0 1 0 0 empty empty Mix -2 -8 0 10 -262144
-1 -1 0 1;
#X floatatom 235 26 5 0 0 0 time - -;
#X obj 45 82 delwrite~ delayR 10000;
#X obj 137 138 delread~ delayR \$1;
#X obj 142 248 s~ feedbackR;
#X obj 110 17 r~ feedbackR;
#X obj 355 13 inlet;
#X obj 394 13 inlet;
#X connect 0 0 2 0;
#X connect 1 0 0 0;
#X connect 1 0 6 0;
#X connect 3 0 8 0;
#X connect 4 0 11 0;
#X connect 5 0 4 1;
#X connect 6 0 9 0;
#X connect 7 0 0 2;
#X connect 8 0 10 0;
#X connect 10 0 0 1;
#X connect 10 0 4 0;
#X connect 12 0 6 1;
#X connect 13 0 7 0;
#X connect 14 0 5 0;
#X coords 0 -1 1 1 80 120 1 200 0;
#X restore 164 588 pd delayR;
#N canvas 290 374 605 300 delayL 0;
#X obj 36 166 expr~ $v1*(1-$f3) + $v2*($f3);
#X obj 17 37 inlet~;
#X obj 36 199 outlet~;
#X obj 313 12 inlet;
#X obj 141 219 *~ 0.5;
#X obj 214 94 hsl 50 15 0 1 0 0 empty empty feedback -2 -8 0 10 -262144
-1 -1 0 1;
#X obj 92 49 +~;
#X obj 214 59 hsl 50 15 0 1 0 0 empty empty Mix -2 -8 0 10 -262144
-1 -1 0 1;
#X floatatom 235 26 5 0 0 0 time - -;
#X obj 137 138 delread~ delayL \$1;
#X obj 110 17 r~ feedbackL;
#X obj 142 248 s~ feedbackL;
#X obj 45 82 delwrite~ delayL 10000;
#X obj 370 10 inlet;
#X obj 425 13 inlet;
#X connect 0 0 2 0;
#X connect 1 0 6 0;
#X connect 1 0 0 0;
#X connect 3 0 8 0;
#X connect 4 0 11 0;
#X connect 5 0 4 1;
#X connect 6 0 12 0;
#X connect 7 0 0 2;
#X connect 8 0 9 0;
#X connect 9 0 4 0;
#X connect 9 0 0 1;
#X connect 10 0 6 1;
#X connect 13 0 7 0;
#X connect 14 0 5 0;
#X coords 0 -1 1 1 80 120 1 200 0;
#X restore 59 589 pd delayL;
#N canvas 82 213 824 602 reverb 0;
#X obj 19 -18 inlet~;
#X obj 243 233 +~;
#X obj 285 233 +~;
#X obj 54 359 outlet~;
#X obj 124 359 outlet~;
#X obj 243 297 +~;
#X obj 348 298 +~;
#X obj 285 297 -~;
#X obj 387 297 -~;
#X obj 242 366 +~;
#X obj 286 367 +~;
#X obj 330 368 -~;
#X obj 369 368 -~;
#X obj 330 450 *~ 0;
#X obj 286 449 *~ 0;
#X obj 242 448 *~ 0;
#X obj 369 451 *~ 0;
#X obj 520 294 inlet;
#X obj 519 405 / 200;
#X obj 519 357 min 100;
#X obj 519 380 max 0;
#X obj 242 559 delwrite~ loop-del1 60;
#X obj 286 536 delwrite~ loop-del2 71.9345;
#X obj 369 489 delwrite~ loop-del4 95.945;
#X obj 261 172 delread~ loop-del1 60;
#X obj 303 198 delread~ loop-del2 71.9345;
#X obj 405 249 delread~ loop-del4 95.945;
#X obj 387 224 delread~ loop-del3 86.7545;
#X obj 330 513 delwrite~ loop-del3 86.7545;
#X text 34 379 Tap outputs from here.;
#N canvas 0 25 450 300 reverb-echo 0;
#X obj 138 73 inlet~;
#X obj 229 74 inlet~;
#X obj 138 202 outlet~;
#X obj 212 202 outlet~;
#X obj 138 121 +~;
#X obj 211 119 -~;
#X obj 211 143 delwrite~ \$1 \$2;
#X obj 212 172 delread~ \$1 \$2;
#X connect 0 0 4 0;
#X connect 0 0 5 0;
#X connect 1 0 4 1;
#X connect 1 0 5 1;
#X connect 4 0 2 0;
#X connect 5 0 6 0;
#X connect 7 0 3 0;
#X restore 19 126 pd reverb-echo echo-del6 55.5437;
#N canvas 0 25 450 300 reverb-echo 0;
#X obj 138 73 inlet~;
#X obj 229 74 inlet~;
#X obj 138 202 outlet~;
#X obj 212 202 outlet~;
#X obj 138 121 +~;
#X obj 211 119 -~;
#X obj 211 143 delwrite~ \$1 \$2;
#X obj 212 172 delread~ \$1 \$2;
#X connect 0 0 4 0;
#X connect 0 0 5 0;
#X connect 1 0 4 1;
#X connect 1 0 5 1;
#X connect 4 0 2 0;
#X connect 5 0 6 0;
#X connect 7 0 3 0;
#X restore 19 102 pd reverb-echo echo-del5 34.3876;
#N canvas 0 25 450 300 reverb-echo 0;
#X obj 138 73 inlet~;
#X obj 229 74 inlet~;
#X obj 138 202 outlet~;
#X obj 212 202 outlet~;
#X obj 138 121 +~;
#X obj 211 119 -~;
#X obj 211 143 delwrite~ \$1 \$2;
#X obj 212 172 delread~ \$1 \$2;
#X connect 0 0 4 0;
#X connect 0 0 5 0;
#X connect 1 0 4 1;
#X connect 1 0 5 1;
#X connect 4 0 2 0;
#X connect 5 0 6 0;
#X connect 7 0 3 0;
#X restore 19 78 pd reverb-echo echo-del4 21.5463;
#N canvas 0 25 450 300 reverb-echo 0;
#X obj 138 73 inlet~;
#X obj 229 74 inlet~;
#X obj 138 202 outlet~;
#X obj 212 202 outlet~;
#X obj 138 121 +~;
#X obj 211 119 -~;
#X obj 211 143 delwrite~ \$1 \$2;
#X obj 212 172 delread~ \$1 \$2;
#X connect 0 0 4 0;
#X connect 0 0 5 0;
#X connect 1 0 4 1;
#X connect 1 0 5 1;
#X connect 4 0 2 0;
#X connect 5 0 6 0;
#X connect 7 0 3 0;
#X restore 19 54 pd reverb-echo echo-del3 13.4367;
#N canvas 0 25 450 300 reverb-echo 0;
#X obj 138 73 inlet~;
#X obj 229 74 inlet~;
#X obj 138 202 outlet~;
#X obj 212 202 outlet~;
#X obj 138 121 +~;
#X obj 211 119 -~;
#X obj 211 143 delwrite~ \$1 \$2;
#X obj 212 172 delread~ \$1 \$2;
#X connect 0 0 4 0;
#X connect 0 0 5 0;
#X connect 1 0 4 1;
#X connect 1 0 5 1;
#X connect 4 0 2 0;
#X connect 5 0 6 0;
#X connect 7 0 3 0;
#X restore 19 30 pd reverb-echo echo-del2 8.45346;
#N canvas 0 25 450 300 reverb-echo 0;
#X obj 138 73 inlet~;
#X obj 229 74 inlet~;
#X obj 138 202 outlet~;
#X obj 212 202 outlet~;
#X obj 138 121 +~;
#X obj 211 119 -~;
#X obj 211 143 delwrite~ \$1 \$2;
#X obj 212 172 delread~ \$1 \$2;
#X connect 0 0 4 0;
#X connect 0 0 5 0;
#X connect 1 0 4 1;
#X connect 1 0 5 1;
#X connect 4 0 2 0;
#X connect 5 0 6 0;
#X connect 7 0 3 0;
#X restore 19 6 pd reverb-echo echo-del1 5.43216;
#X obj 412 32 hsl 60 20 0 100 0 0 empty empty empty -2 -8 0 10 -262130
-1 -1 0 1;
#X connect 0 0 35 0;
#X connect 1 0 3 0;
#X connect 1 0 5 0;
#X connect 1 0 7 0;
#X connect 2 0 4 0;
#X connect 2 0 5 1;
#X connect 2 0 7 1;
#X connect 5 0 9 0;
#X connect 5 0 11 0;
#X connect 6 0 11 1;
#X connect 6 0 9 1;
#X connect 7 0 10 0;
#X connect 7 0 12 0;
#X connect 8 0 10 1;
#X connect 8 0 12 1;
#X connect 9 0 15 0;
#X connect 10 0 14 0;
#X connect 11 0 13 0;
#X connect 12 0 16 0;
#X connect 13 0 28 0;
#X connect 14 0 22 0;
#X connect 15 0 21 0;
#X connect 16 0 23 0;
#X connect 17 0 36 0;
#X connect 18 0 16 1;
#X connect 18 0 15 1;
#X connect 18 0 14 1;
#X connect 18 0 13 1;
#X connect 19 0 20 0;
#X connect 20 0 18 0;
#X connect 24 0 1 1;
#X connect 25 0 2 1;
#X connect 26 0 6 1;
#X connect 26 0 8 1;
#X connect 27 0 6 0;
#X connect 27 0 8 0;
#X connect 30 0 1 0;
#X connect 30 1 2 0;
#X connect 31 0 30 0;
#X connect 31 1 30 1;
#X connect 32 0 31 0;
#X connect 32 1 31 1;
#X connect 33 0 32 0;
#X connect 33 1 32 1;
#X connect 34 0 33 0;
#X connect 34 1 33 1;
#X connect 35 0 34 0;
#X connect 35 1 34 1;
#X connect 36 0 19 0;
#X coords 0 -1 1 1 85 60 1 400 0;
#X restore 60 473 pd reverb;
#N canvas 260 144 934 613 Lowpass 0;
#X obj 13 150 inlet~;
#X obj 68 237 fexpr~ $f3*$x1[0]+$f3*$x1[-1]+$f2*$y1[-1];
#X obj 67 270 outlet~;
#X obj 116 105 t f f b;
#X obj 18 29 hsl 100 20 100 10000 0 0 empty empty freq(100~10kHz) 0
8 0 10 -4032 -1 -1 0 1;
#X obj 119 138 expr (1-tan(3.1416*$f1/$f2))/(1+tan(3.1416*$f1/$f2))
;
#X obj 185 174 expr tan(3.1416*$f1/$f2)/(1+tan(3.1416*$f1/$f2));
#X obj 505 120 samplerate~;
#X floatatom 125 173 5 0 0 0 --a_1= - -;
#X floatatom 183 203 5 0 0 0 b_0=b_1= - -;
#X obj 188 41 inlet;
#X connect 0 0 1 0;
#X connect 1 0 2 0;
#X connect 3 0 5 0;
#X connect 3 1 6 0;
#X connect 3 2 7 0;
#X connect 4 0 3 0;
#X connect 5 0 8 0;
#X connect 6 0 9 0;
#X connect 7 0 5 1;
#X connect 7 0 6 1;
#X connect 8 0 1 1;
#X connect 9 0 1 2;
#X connect 10 0 4 0;
#X coords 0 -1 1 1 140 60 1 0 0;
#X restore 60 310 pd Lowpass;
#N canvas 469 243 331 264 dist 0;
#X obj 121 68 inlet~;
#X obj 201 78 inlet;
#X obj 120 104 *~ 1;
#X obj 120 178 outlet~;
#X obj 120 142 clip~ -1 1;
#X connect 0 0 2 0;
#X connect 1 0 2 1;
#X connect 2 0 4 0;
#X connect 4 0 3 0;
#X restore 61 158 pd dist;
#N canvas 242 74 301 277 stereophaser 1;
#N canvas 192 173 356 300 hilbert 0;
#X obj 378 166 biquad~ 0.83774 -0.06338 0.06338 -0.83774 1;
#X obj 389 136 biquad~ 1.94632 -0.94657 0.94657 -1.94632 1;
#X obj 41 136 biquad~ -0.02569 0.260502 -0.260502 0.02569 1;
#X obj 41 162 biquad~ 1.8685 -0.870686 0.870686 -1.8685 1;
#X obj 41 36 inlet~;
#X obj 378 195 outlet~;
#X obj 41 189 outlet~;
#X text 140 251 This is a pair of 4th-order all-pass filters whose
outputs somehow manage to be about 90 degrees out of phase from each
other. Both have different phases from the original. Adapted from a
4X patch by Emmanuel Favreau \, circa 1982;
#X obj 378 36 inlet;
#X text 276 35 bang to clear;
#X text 93 35 signal in;
#X msg 378 79 clear;
#X connect 0 0 5 0;
#X connect 1 0 0 0;
#X connect 2 0 3 0;
#X connect 3 0 6 0;
#X connect 4 0 1 0;
#X connect 4 0 2 0;
#X connect 8 0 11 0;
#X connect 11 0 1 0;
#X connect 11 0 0 0;
#X connect 11 0 3 0;
#X connect 11 0 2 0;
#X restore 13 71 pd hilbert;
#X floatatom 114 44 5 0 0 0 - - -;
#X obj 13 116 *~;
#X obj 188 116 *~;
#X obj 114 74 osc~;
#X obj 206 82 osc~;
#X msg 231 45 -0.25;
#X obj 13 163 +~;
#X obj 170 164 -~;
#X obj 13 14 inlet~;
#X obj 13 236 outlet~;
#X obj 170 234 outlet~;
#X obj 114 14 inlet;
#X obj 232 11 loadbang;
#X connect 0 0 2 0;
#X connect 0 1 3 0;
#X connect 1 0 4 0;
#X connect 1 0 5 0;
#X connect 2 0 7 0;
#X connect 2 0 8 0;
#X connect 3 0 7 1;
#X connect 3 0 8 1;
#X connect 4 0 2 1;
#X connect 5 0 3 1;
#X connect 6 0 5 1;
#X connect 7 0 10 0;
#X connect 8 0 11 0;
#X connect 9 0 0 0;
#X connect 12 0 1 0;
#X connect 13 0 6 0;
#X restore 59 555 pd stereophaser;
#N canvas 135 331 641 414 EQ 0;
#X obj 310 90 vsl 20 50 0 2 0 0 empty empty Low 0 -9 0 10 -4160 -1
-1 2572 1;
#X obj 350 91 vsl 20 50 0 2 0 0 empty empty Mid 0 -9 0 10 -257985 -1
-1 2572 1;
#X obj 390 90 vsl 20 50 0 2 0 0 empty empty High 0 -9 0 10 -258113
-1 -1 2572 1;
#X msg 179 195 \$1 100;
#X obj 179 221 line;
#X floatatom 179 247 5 0 0 0 - - -;
#X obj 161 285 *~;
#X obj 28 50 inlet~;
#X obj 161 314 lop~ 500;
#X obj 275 290 hip~ 500;
#X obj 275 316 lop~ 2000;
#X obj 161 351 expr~ $v1+$v2+$v3, f 33;
#X msg 293 172 \$1 100;
#X obj 293 198 line;
#X floatatom 293 224 5 0 0 0 - - -;
#X obj 275 262 *~;
#X msg 406 200 \$1 100;
#X obj 406 226 line;
#X floatatom 406 252 5 0 0 0 - - -;
#X obj 388 290 *~;
#X obj 388 318 hip~ 2000;
#X obj 301 11 inlet;
#X obj 353 2 inlet;
#X obj 400 16 inlet;
#X obj 170 17 loadbang;
#X msg 463 53 1.05;
#X msg 170 46 136;
#X floatatom 171 74 5 0 0 0 - - -;
#X obj 172 100 mtof;
#X floatatom 172 125 5 0 0 0 - - -;
#X obj 56 101 lop~;
#X obj 212 382 outlet~;
#X connect 0 0 3 0;
#X connect 1 0 12 0;
#X connect 2 0 16 0;
#X connect 3 0 4 0;
#X connect 4 0 5 0;
#X connect 5 0 6 1;
#X connect 6 0 8 0;
#X connect 7 0 30 0;
#X connect 8 0 11 0;
#X connect 9 0 10 0;
#X connect 10 0 11 1;
#X connect 11 0 31 0;
#X connect 12 0 13 0;
#X connect 13 0 14 0;
#X connect 14 0 15 1;
#X connect 15 0 9 0;
#X connect 16 0 17 0;
#X connect 17 0 18 0;
#X connect 18 0 19 1;
#X connect 19 0 20 0;
#X connect 20 0 11 2;
#X connect 21 0 0 0;
#X connect 22 0 1 0;
#X connect 23 0 2 0;
#X connect 24 0 25 0;
#X connect 24 0 26 0;
#X connect 25 0 0 0;
#X connect 25 0 1 0;
#X connect 25 0 2 0;
#X connect 26 0 27 0;
#X connect 27 0 28 0;
#X connect 28 0 29 0;
#X connect 29 0 30 1;
#X connect 30 0 6 0;
#X connect 30 0 15 0;
#X connect 30 0 19 0;
#X coords 0 -1 1 1 120 100 1 300 50;
#X restore 60 194 pd EQ;
#X obj 333 173 r fromGUI;
#X obj 333 200 list trim;
#X floatatom 397 369 5 0 0 0 - - -;
#X obj 60 756 dac~;
#X obj 59 728 *~;
#X obj 161 723 *~;
#X obj 287 724 line~;
#X obj 357 607 pack f 50;
#X obj 333 268 * -1;
#X obj 158 12 r threshold;
#X obj 333 325 s threshold;
#X floatatom 333 296 5 0 0 0 - - -;
#X obj 397 398 s attack;
#X obj 258 16 r attack;
#X floatatom 461 275 5 0 0 0 - - -;
#X obj 461 316 s release;
#X obj 353 13 r release;
#X floatatom 526 266 5 0 0 0 - - -;
#X obj 526 295 s ratio;
#X obj 454 11 r ratio;
#X obj 552 12 r knees;
#X obj 589 300 s knees;
#X floatatom 589 265 5 0 0 0 - - -;
#X obj 107 132 r dist;
#X obj 656 304 s dist;
#X floatatom 656 272 5 0 0 0 - - -;
#X obj 718 304 s low;
#X obj 776 406 s mid;
#X obj 841 404 s high;
#X obj 176 155 r low;
#X obj 222 155 r mid;
#X obj 265 155 r high;
#X obj 719 266 * 2;
#X obj 775 379 * 2;
#X obj 842 374 * 2;
#X obj 902 404 s lp;
#X obj 210 283 r lp;
#X obj 902 340 + 1;
#X obj 903 372 * 100;
#X obj 206 356 r choMix;
#X obj 195 443 r revMix;
#X obj 178 524 r phaserFq;
#X floatatom 973 373 5 0 0 0 - - -;
#X obj 973 400 s choMix;
#X floatatom 1043 374 5 0 0 0 - - -;
#X obj 1043 401 s revMix;
#X floatatom 1109 371 5 0 0 0 - - -;
#X obj 1109 399 s phaserFq;
#X floatatom 1283 373 5 0 0 0 - - -;
#X obj 1283 400 s mix;
#X floatatom 1328 373 5 0 0 0 - - -;
#X obj 1328 400 s fb;
#X floatatom 1377 374 5 0 0 0 - - -;
#X obj 1377 401 s v;
#X obj 314 531 r Lt;
#X obj 358 531 r Rt;
#X obj 398 532 r mix;
#X obj 537 534 r v;
#X obj 1158 312 unpack 0 0;
#X floatatom 1151 491 5 0 0 0 - - -;
#X floatatom 1240 490 5 0 0 0 - - -;
#X obj 1178 585 s Lt;
#X floatatom 1167 558 5 0 0 0 - - -;
#X obj 1152 531 * 1000;
#X obj 1239 519 * 1000;
#X floatatom 1239 554 5 0 0 0 - - -;
#X obj 1239 581 s Rt;
#X obj 448 533 r fb;
#X obj 1094 332 * 3;
#X obj 1007 321 * 10;
#X obj 333 229 route /threshold /attack /release /ratio /knees /dist
/low /mid /high /lp /choMix /revMix /phaserFq /LRtime /mix /feedback
/volume, f 157;
#X obj 61 -1 adc~ 2;
#X connect 0 0 6 0;
#X connect 1 0 4 0;
#X connect 2 0 14 0;
#X connect 3 0 13 0;
#X connect 4 0 7 0;
#X connect 5 0 1 0;
#X connect 6 0 8 0;
#X connect 7 0 3 0;
#X connect 7 1 2 0;
#X connect 8 0 5 0;
#X connect 9 0 10 0;
#X connect 10 0 79 0;
#X connect 11 0 21 0;
#X connect 13 0 12 0;
#X connect 14 0 12 1;
#X connect 15 0 14 1;
#X connect 15 0 13 1;
#X connect 16 0 15 0;
#X connect 17 0 20 0;
#X connect 18 0 0 1;
#X connect 20 0 19 0;
#X connect 22 0 0 2;
#X connect 23 0 24 0;
#X connect 25 0 0 3;
#X connect 26 0 27 0;
#X connect 28 0 0 4;
#X connect 29 0 0 5;
#X connect 31 0 30 0;
#X connect 32 0 6 1;
#X connect 34 0 33 0;
#X connect 38 0 8 1;
#X connect 39 0 8 2;
#X connect 40 0 8 3;
#X connect 41 0 35 0;
#X connect 42 0 36 0;
#X connect 43 0 37 0;
#X connect 45 0 5 1;
#X connect 46 0 47 0;
#X connect 47 0 44 0;
#X connect 48 0 1 1;
#X connect 49 0 4 1;
#X connect 50 0 7 1;
#X connect 51 0 52 0;
#X connect 53 0 54 0;
#X connect 55 0 56 0;
#X connect 57 0 58 0;
#X connect 59 0 60 0;
#X connect 61 0 62 0;
#X connect 63 0 3 1;
#X connect 64 0 2 1;
#X connect 65 0 3 2;
#X connect 65 0 2 2;
#X connect 66 0 16 0;
#X connect 67 0 68 0;
#X connect 67 1 69 0;
#X connect 68 0 72 0;
#X connect 69 0 73 0;
#X connect 71 0 70 0;
#X connect 72 0 71 0;
#X connect 73 0 74 0;
#X connect 74 0 75 0;
#X connect 76 0 3 3;
#X connect 76 0 2 3;
#X connect 77 0 55 0;
#X connect 78 0 53 0;
#X connect 79 0 17 0;
#X connect 79 1 11 0;
#X connect 79 2 23 0;
#X connect 79 3 26 0;
#X connect 79 4 31 0;
#X connect 79 5 34 0;
#X connect 79 6 41 0;
#X connect 79 7 42 0;
#X connect 79 8 43 0;
#X connect 79 9 46 0;
#X connect 79 10 51 0;
#X connect 79 11 78 0;
#X connect 79 12 77 0;
#X connect 79 13 67 0;
#X connect 79 14 57 0;
#X connect 79 15 59 0;
#X connect 79 16 61 0;
#X connect 80 0 0 0;
